{
  "accessors": [
    {
      "bufferView": 2,
      "componentType": 5126,
      "count": 3135,
      "max": [
        1.083836555480957,
        0.14528794586658478,
        0.2054576724767685
      ],
      "min": [
        -1.083836555480957,
        -0.14528794586658478,
        -0.2054576724767685
      ],
      "type": "VEC3"
    },
    {
      "bufferView": 2,
      "byteOffset": 37620,
      "componentType": 5126,
      "count": 3135,
      "max": [
        1.0,
        1.0,
        1.0
      ],
      "min": [
        -1.0,
        -1.0,
        -1.0
      ],
      "type": "VEC3"
    },
    {
      "bufferView": 3,
      "componentType": 5126,
      "count": 3135,
      "max": [
        1.0,
        1.0,
        1.0,
        1.0
      ],
      "min": [
        -1.0,
        -1.0,
        -1.0,
        -1.0
      ],
      "type": "VEC4"
    },
    {
      "bufferView": 1,
      "componentType": 5126,
      "count": 3135,
      "max": [
        0.998046875,
        0.9985036849975586
      ],
      "min": [
        0.0014925003051757813,
        0.00146484375
      ],
      "type": "VEC2"
    },
    {
      "bufferView": 1,
      "byteOffset": 25080,
      "componentType": 5126,
      "count": 3135,
      "max": [
        0.998046875,
        0.9985036849975586
      ],
      "min": [
        0.0014925003051757813,
        0.00146484375
      ],
      "type": "VEC2"
    },
    {
      "bufferView": 1,
      "byteOffset": 50160,
      "componentType": 5126,
      "count": 3135,
      "max": [
        0.998046875,
        0.9985036849975586
      ],
      "min": [
        0.0014925003051757813,
        0.00146484375
      ],
      "type": "VEC2"
    },
    {
      "bufferView": 1,
      "byteOffset": 75240,
      "componentType": 5126,
      "count": 3135,
      "max": [
        0.998046875,
        0.9985036849975586
      ],
      "min": [
        0.0014925003051757813,
        0.00146484375
      ],
      "type": "VEC2"
    },
    {
      "bufferView": 0,
      "componentType": 5125,
      "count": 9414,
      "type": "SCALAR"
    },
    {
      "bufferView": 2,
      "byteOffset": 75240,
      "componentType": 5126,
      "count": 9422,
      "max": [
        4.612906455993652,
        8.084877014160156,
        -0.5578691363334656
      ],
      "min": [
        -4.612905025482178,
        -7.015766143798828,
        -5.268355846405029
      ],
      "type": "VEC3"
    },
    {
      "bufferView": 2,
      "byteOffset": 188304,
      "componentType": 5126,
      "count": 9422,
      "max": [
        1.0,
        1.0,
        1.0
      ],
      "min": [
        -1.0,
        -1.0,
        -1.0
      ],
      "type": "VEC3"
    },
    {
      "bufferView": 3,
      "byteOffset": 50160,
      "componentType": 5126,
      "count": 9422,
      "max": [
        1.0,
        1.0,
        1.0,
        1.0
      ],
      "min": [
        -1.0,
        -1.0,
        -1.0,
        -1.0
      ],
      "type": "VEC4"
    },
    {
      "bufferView": 1,
      "byteOffset": 100320,
      "componentType": 5126,
      "count": 9422,
      "max": [
        0.998046875,
        0.9990234375
      ],
      "min": [
        0.0009765625,
        0.001953125
      ],
      "type": "VEC2"
    },
    {
      "bufferView": 1,
      "byteOffset": 175696,
      "componentType": 5126,
      "count": 9422,
      "max": [
        0.998046875,
        0.9990234375
      ],
      "min": [
        0.0009765625,
        0.001953125
      ],
      "type": "VEC2"
    },
    {
      "bufferView": 1,
      "byteOffset": 251072,
      "componentType": 5126,
      "count": 9422,
      "max": [
        0.998046875,
        0.9990234375
      ],
      "min": [
        0.0009765625,
        0.001953125
      ],
      "type": "VEC2"
    },
    {
      "bufferView": 1,
      "byteOffset": 326448,
      "componentType": 5126,
      "count": 9422,
      "max": [
        0.998046875,
        0.9990234375
      ],
      "min": [
        0.0009765625,
        0.001953125
      ],
      "type": "VEC2"
    },
    {
      "bufferView": 0,
      "byteOffset": 37656,
      "componentType": 5125,
      "count": 26874,
      "type": "SCALAR"
    },
    {
      "bufferView": 2,
      "byteOffset": 301368,
      "componentType": 5126,
      "count": 284,
      "max": [
        0.4044370949268341,
        5.2043914794921875,
        -2.381910562515259
      ],
      "min": [
        -0.4044434130191803,
        2.0532147884368896,
        -3.062478542327881
      ],
      "type": "VEC3"
    },
    {
      "bufferView": 2,
      "byteOffset": 304776,
      "componentType": 5126,
      "count": 284,
      "max": [
        0.999332845211029,
        0.7543148398399353,
        0.9978573322296143
      ],
      "min": [
        -0.999332845211029,
        -0.7543148398399353,
        -0.9975820779800415
      ],
      "type": "VEC3"
    },
    {
      "bufferView": 3,
      "byteOffset": 200912,
      "componentType": 5126,
      "count": 284,
      "max": [
        1.0,
        0.9995283484458923,
        0.6369228363037109,
        1.0
      ],
      "min": [
        -1.0,
        0.0,
        -0.33335989713668823,
        -1.0
      ],
      "type": "VEC4"
    },
    {
      "bufferView": 1,
      "byteOffset": 401824,
      "componentType": 5126,
      "count": 284,
      "max": [
        0.145263671875,
        0.072265625
      ],
      "min": [
        0.0026988983154296875,
        0.001953125
      ],
      "type": "VEC2"
    },
    {
      "bufferView": 1,
      "byteOffset": 404096,
      "componentType": 5126,
      "count": 284,
      "max": [
        0.145263671875,
        0.072265625
      ],
      "min": [
        0.0026988983154296875,
        0.001953125
      ],
      "type": "VEC2"
    },
    {
      "bufferView": 0,
      "byteOffset": 145152,
      "componentType": 5125,
      "count": 1284,
      "type": "SCALAR"
    },
    {
      "bufferView": 2,
      "byteOffset": 308184,
      "componentType": 5126,
      "count": 4040,
      "max": [
        1.3041671514511108,
        3.1321029663085938,
        0.0019048309186473489
      ],
      "min": [
        -1.304166555404663,
        -1.4394341707229614,
        -1.5181747674942017
      ],
      "type": "VEC3"
    },
    {
      "bufferView": 2,
      "byteOffset": 356664,
      "componentType": 5126,
      "count": 4040,
      "max": [
        1.0,
        1.0,
        1.0
      ],
      "min": [
        -1.0,
        -1.0,
        -1.0
      ],
      "type": "VEC3"
    },
    {
      "bufferView": 3,
      "byteOffset": 205456,
      "componentType": 5126,
      "count": 4040,
      "max": [
        1.0,
        1.0,
        1.0,
        1.0
      ],
      "min": [
        -1.0,
        -1.0,
        -1.0,
        -1.0
      ],
      "type": "VEC4"
    },
    {
      "bufferView": 1,
      "byteOffset": 406368,
      "componentType": 5126,
      "count": 4040,
      "max": [
        0.99755859375,
        0.9990234375
      ],
      "min": [
        0.0009765625,
        0.00146484375
      ],
      "type": "VEC2"
    },
    {
      "bufferView": 1,
      "byteOffset": 438688,
      "componentType": 5126,
      "count": 4040,
      "max": [
        0.99755859375,
        0.9990234375
      ],
      "min": [
        0.0009765625,
        0.00146484375
      ],
      "type": "VEC2"
    },
    {
      "bufferView": 1,
      "byteOffset": 471008,
      "componentType": 5126,
      "count": 4040,
      "max": [
        0.99755859375,
        0.9990234375
      ],
      "min": [
        0.0009765625,
        0.00146484375
      ],
      "type": "VEC2"
    },
    {
      "bufferView": 1,
      "byteOffset": 503328,
      "componentType": 5126,
      "count": 4040,
      "max": [
        0.99755859375,
        0.9990234375
      ],
      "min": [
        0.0009765625,
        0.00146484375
      ],
      "type": "VEC2"
    },
    {
      "bufferView": 0,
      "byteOffset": 150288,
      "componentType": 5125,
      "count": 10500,
      "type": "SCALAR"
    }
  ],
  "asset": {
    "extras": {
      "author": "xlisov (https://sketchfab.com/xlisov74)",
      "license": "CC-BY-NC-4.0 (http://creativecommons.org/licenses/by-nc/4.0/)",
      "source": "https://sketchfab.com/3d-models/ba-f-16v-viper-9d5d5fa8c93a4e429dac8be80bf9a04d",
      "title": "[BA] F-16V Viper"
    },
    "generator": "Sketchfab-16.72.0",
    "version": "2.0"
  },
  "bufferViews": [
    {
      "buffer": 0,
      "byteLength": 192288,
      "name": "floatBufferViews",
      "target": 34963
    },
    {
      "buffer": 0,
      "byteLength": 535648,
      "byteOffset": 192288,
      "byteStride": 8,
      "name": "floatBufferViews",
      "target": 34962
    },
    {
      "buffer": 0,
      "byteLength": 405144,
      "byteOffset": 727936,
      "byteStride": 12,
      "name": "floatBufferViews",
      "target": 34962
    },
    {
      "buffer": 0,
      "byteLength": 270096,
      "byteOffset": 1133080,
      "byteStride": 16,
      "name": "floatBufferViews",
      "target": 34962
    }
  ],
  "buffers": [
    {
      "byteLength": 1403176,
      "uri": "scene.bin"
    }
  ],
  "extensionsUsed": [
    "KHR_materials_specular"
  ],
  "images": [
    {
      "uri": "textures/material_baseColor.png"
    },
    {
      "uri": "textures/material_metallicRoughness.png"
    },
    {
      "uri": "textures/material_normal.png"
    },
    {
      "uri": "textures/material_specularf0.png"
    },
    {
      "uri": "textures/body_baseColor.png"
    },
    {
      "uri": "textures/body_metallicRoughness.png"
    },
    {
      "uri": "textures/body_normal.png"
    },
    {
      "uri": "textures/glass_baseColor.png"
    }
  ],
  "materials": [
    {
      "doubleSided": true,
      "extensions": {
        "KHR_materials_specular": {
          "specularColorFactor": [
            1.0,
            1.0,
            1.0
          ],
          "specularFactor": 1.0,
          "specularTexture": {
            "index": 3
          }
        }
      },
      "name": "material",
      "normalTexture": {
        "index": 2
      },
      "pbrMetallicRoughness": {
        "baseColorTexture": {
          "index": 0
        },
        "metallicRoughnessTexture": {
          "index": 1
        },
        "roughnessFactor": 0.5
      }
    },
    {
      "doubleSided": true,
      "name": "body",
      "normalTexture": {
        "index": 6
      },
      "pbrMetallicRoughness": {
        "baseColorTexture": {
          "index": 4
        },
        "metallicRoughnessTexture": {
          "index": 5
        },
        "roughnessFactor": 0.5
      }
    },
    {
      "alphaMode": "BLEND",
      "doubleSided": true,
      "name": "glass",
      "normalTexture": {
        "index": 6
      },
      "pbrMetallicRoughness": {
        "baseColorFactor": [
          1.0,
          1.0,
          1.0,
          0.3
        ],
        "baseColorTexture": {
          "index": 7
        },
        "metallicFactor": 0.0,
        "roughnessFactor": 0.5
      }
    }
  ],
  "meshes": [
    {
      "name": "Object_0",
      "primitives": [
        {
          "attributes": {
            "NORMAL": 1,
            "POSITION": 0,
            "TANGENT": 2,
            "TEXCOORD_0": 3,
            "TEXCOORD_1": 4,
            "TEXCOORD_2": 5,
            "TEXCOORD_3": 6
          },
          "indices": 7,
          "material": 0,
          "mode": 4
        }
      ]
    },
    {
      "name": "Object_1",
      "primitives": [
        {
          "attributes": {
            "NORMAL": 9,
            "POSITION": 8,
            "TANGENT": 10,
            "TEXCOORD_0": 11,
            "TEXCOORD_1": 12,
            "TEXCOORD_2": 13,
            "TEXCOORD_3": 14
          },
          "indices": 15,
          "material": 1,
          "mode": 4
        }
      ]
    },
    {
      "name": "Object_2",
      "primitives": [
        {
          "attributes": {
            "NORMAL": 17,
            "POSITION": 16,
            "TANGENT": 18,
            "TEXCOORD_0": 19,
            "TEXCOORD_1": 20
          },
          "indices": 21,
          "material": 2,
          "mode": 4
        }
      ]
    },
    {
      "name": "Object_3",
      "primitives": [
        {
          "attributes": {
            "NORMAL": 23,
            "POSITION": 22,
            "TANGENT": 24,
            "TEXCOORD_0": 25,
            "TEXCOORD_1": 26,
            "TEXCOORD_2": 27,
            "TEXCOORD_3": 28
          },
          "indices": 29,
          "material": 1,
          "mode": 4
        }
      ]
    }
  ],
  "nodes": [
    {
      "children": [
        1
      ],
      "matrix": [
        1.0,
        0.0,
        0.0,
        0.0,
        0.0,
        2.220446049250313e-16,
        -1.0,
        0.0,
        0.0,
        1.0,
        2.220446049250313e-16,
        0.0,
        0.0,
        0.0,
        0.0,
        1.0
      ],
      "name": "Sketchfab_model"
    },
    {
      "children": [
        2
      ],
      "name": "root"
    },
    {
      "children": [
        3,
        5,
        8
      ],
      "matrix": [
        1.0,
        0.0,
        0.0,
        0.0,
        0.0,
        2.220446049250313e-16,
        1.0,
        0.0,
        0.0,
        -1.0,
        2.220446049250313e-16,
        0.0,
        0.0,
        0.0,
        0.0,
        1.0
      ],
      "name": "GLTF_SceneRootNode"
    },
    {
      "children": [
        4
      ],
      "matrix": [
        6.586313196388359e-08,
        -2.9802812884216614e-10,
        -0.00999999977626568,
        0.0,
        0.009999999776265573,
        -1.490115126845403e-09,
        6.586313200829251e-08,
        0.0,
        -1.4901170897196667e-09,
        -0.009999999776482466,
        2.980183144708478e-10,
        0.0,
        -0.0054699997417628765,
        0.00731992581859231,
        0.02782999537885189,
        1.0
      ],
      "name": "SniperXR_0"
    },
    {
      "mesh": 0,
      "name": "Object_4"
    },
    {
      "children": [
        6,
        7
      ],
      "matrix": [
        0.009999999776482582,
        0.0,
        0.0,
        0.0,
        0.0,
        3.3717478632652707e-09,
        0.009999999776482013,
        0.0,
        0.0,
        -0.009999999776482013,
        3.3717478632652707e-09,
        0.0,
        0.0,
        0.0,
        0.0,
        1.0
      ],
      "name": "Chassis_1"
    },
    {
      "mesh": 1,
      "name": "Object_6"
    },
    {
      "mesh": 2,
      "name": "Object_7"
    },
    {
      "children": [
        9
      ],
      "matrix": [
        0.009999999776482582,
        0.0,
        0.0,
        0.0,
        0.0,
        3.3717478632652707e-09,
        0.009999999776482013,
        0.0,
        0.0,
        -0.009999999776482013,
        3.3717478632652707e-09,
        0.0,
        0.0,
        0.0,
        0.0,
        1.0
      ],
      "name": "open_2"
    },
    {
      "mesh": 3,
      "name": "Object_9"
    }
  ],
  "samplers": [
    {
      "magFilter": 9729,
      "minFilter": 9987,
      "wrapS": 10497,
      "wrapT": 10497
    }
  ],
  "scene": 0,
  "scenes": [
    {
      "name": "Sketchfab_Scene",
      "nodes": [
        0
      ]
    }
  ],
  "textures": [
    {
      "sampler": 0,
      "source": 0
    },
    {
      "sampler": 0,
      "source": 1
    },
    {
      "sampler": 0,
      "source": 2
    },
    {
      "sampler": 0,
      "source": 3
    },
    {
      "sampler": 0,
      "source": 4
    },
    {
      "sampler": 0,
      "source": 5
    },
    {
      "sampler": 0,
      "source": 6
    },
    {
      "sampler": 0,
      "source": 7
    }
  ]
}
